<?xml version="1.0" encoding="utf-8"?>
<!-- Generator: Adobe Illustrator 18.1.1, SVG Export Plug-In . SVG Version: 6.00 Build 0)  -->
<!DOCTYPE svg PUBLIC "-//W3C//DTD SVG 1.1//EN" "http://www.w3.org/Graphics/SVG/1.1/DTD/svg11.dtd">
<svg version="1.1" id="Layer_1" xmlns="http://www.w3.org/2000/svg" xmlns:xlink="http://www.w3.org/1999/xlink" x="0px" y="0px"
	 viewBox="0 0 194.9 35" enable-background="new 0 0 194.9 35" xml:space="preserve">
<g>
	<defs>
		<rect id="SVGID_1_" y="0" width="194.9" height="35"/>
	</defs>
	<clipPath id="SVGID_2_">
		<use xlink:href="#SVGID_1_"  overflow="visible"/>
	</clipPath>
	<path clip-path="url(#SVGID_2_)" fill="#F9B233" d="M57,12.7h-1.4c-0.8-1.4-2.4-2.2-4-2.2c-2.6,0-4.6,2.1-4.6,4.7
		c0,2.6,2.1,4.6,4.7,4.6c1.7,0,3.3-0.9,4-2.5h1.6c-0.9,2.4-3.2,4-5.8,4c-3.3,0-6.1-2.8-6.1-6c0-1.7,0.6-3.2,1.7-4.3
		C48.4,9.7,49.8,9,51.5,9c1.6,0,3,0.7,4.1,1.9V9.2H57V12.7z"/>
	<path clip-path="url(#SVGID_2_)" fill="#F9B233" d="M63.4,11.8c1-1.8,2.7-2.8,4.8-2.8c1.9,0,3.9,0.8,5,2.8c0.4,0.8,1,1.8,1,3.3
		c0,3.4-2.6,6.1-6,6.1c-2,0-3.9-1-4.8-2.8v5.4h2v1.4h-5.4v-1.4h2V10.5h-2V9.2h3.4V11.8z M72.7,15.1c0-2.9-2.2-4.8-4.6-4.7
		c-2.5,0.1-4.8,1.8-4.8,4.7c0,2.6,2.1,4.7,4.7,4.7C70.6,19.8,72.7,17.6,72.7,15.1"/>
	<path clip-path="url(#SVGID_2_)" fill="#F9B233" d="M79.9,11.3C80.7,9.9,82.1,9,83.8,9c1.4,0,2.6,0.6,3.5,1.6c1,1.2,1.1,2.5,1.1,4
		v4.9h2v1.4H85v-1.4h2v-4.2c0-1.1,0.1-2.2-0.5-3.2c-0.6-1-1.7-1.7-2.9-1.7c-1,0-2,0.4-2.6,1.2c-0.9,1-0.9,2-0.9,3.3v4.7h2v1.4h-5.4
		v-1.4h2V6.3h-2V5h3.4V11.3z"/>
	<path clip-path="url(#SVGID_2_)" fill="#FFFFFF" d="M96.6,11.8c1-1.7,2.6-2.8,4.6-2.8c3.4,0,6.1,2.7,6.1,6.1c0,1.3-0.4,2.5-1,3.3
		c-0.8,1.4-2.8,2.7-5,2.7c-2,0-3.8-1-4.8-2.7v2.4h-3.4v-1.4h2V6.3h-2V5h3.4V11.8z M105.9,15c0-2.5-2.1-4.6-4.6-4.6
		c-2.6,0-4.7,2-4.7,4.6c0,2.6,2.1,4.6,4.7,4.6C103.8,19.7,105.9,17.6,105.9,15"/>
	<path clip-path="url(#SVGID_2_)" fill="#FFFFFF" d="M119.7,18.9c-0.8,1.4-2.2,2.3-3.9,2.3c-1.7,0-3.3-1.1-4-2.3
		c-0.4-0.6-0.6-1.5-0.6-2.9v-5.5h-2V9.2h3.4v6.3c0,1.1,0,2.1,0.7,3.1c0.7,0.9,1.6,1.3,2.8,1.2c1.2-0.1,2-0.6,2.6-1.3
		c0.8-1,0.8-1.8,0.8-3v-5h-2V9.2h3.4v10.3h2v1.4h-3.4V18.9z"/>
	<path clip-path="url(#SVGID_2_)" fill="#FFFFFF" d="M132.2,12.1c0-0.6-0.3-1.1-0.8-1.4c-0.4-0.3-1-0.5-1.6-0.5
		c-1.2,0-2.3,0.7-2.3,2c0,1.5,1.4,1.8,2.6,2.1c0.9,0.2,1.8,0.4,2.6,0.9c0.9,0.5,1.4,1.5,1.4,2.6c0,0.8-0.2,1.3-0.5,1.8
		c-0.6,1.1-2,1.7-3.4,1.7c-1.4,0-2.5-0.5-3.2-1.7v1.4h-1.2v-3.3h1.2c0.1,1.4,1.4,2.5,3,2.5c1.3,0,2.5-0.9,2.5-2.2
		c0-1.6-1.4-1.9-2.7-2.2c-0.9-0.2-1.8-0.4-2.6-0.9c-0.9-0.6-1.4-1.4-1.4-2.5c0-0.8,0.2-1.4,0.6-2c0.7-0.9,2-1.3,3.1-1.3
		c1.1,0,2.1,0.4,2.6,1.3V9.2h1.2v3H132.2z"/>
	<path clip-path="url(#SVGID_2_)" fill="#FFFFFF" d="M140.3,19.5h2v1.4h-5.4v-1.4h2v-8.9h-2V9.2h3.4V19.5z M140.3,7.3h-1.5V5h1.5
		V7.3z"/>
	<path clip-path="url(#SVGID_2_)" fill="#FFFFFF" d="M147.9,11.2c0.7-1.4,2.3-2.2,3.9-2.2c1.3,0,3.3,0.7,4,2.2
		c0.3,0.6,0.6,1.6,0.6,3v5.2h2v1.4H153v-1.4h2v-4.7c0-1,0-2-0.6-3c-0.6-1.1-1.9-1.4-3-1.4c-1,0-2.1,0.4-2.7,1.2
		c-0.8,0.9-0.8,1.9-0.8,3v4.9h2v1.4h-5.4v-1.4h2v-8.9h-2V9.2h3.4V11.2z"/>
	<path clip-path="url(#SVGID_2_)" fill="#FFFFFF" d="M171.9,17.6c-1,2.2-3.2,3.6-5.6,3.6c-3.4,0-6.1-2.7-6.1-6c0-3.3,2.6-6.2,6-6.2
		c3.5,0,6.1,2.7,6.1,6.1v0.4h-10.7c0.1,2.4,2.2,4.3,4.6,4.3c1.7,0,3.2-0.8,4-2.3H171.9z M171,14.3c-0.3-2.4-2.4-4-4.8-4
		c-2.2,0-4.2,1.8-4.5,4H171z"/>
	<path clip-path="url(#SVGID_2_)" fill="#FFFFFF" d="M181.7,12.1c0-0.6-0.3-1.1-0.8-1.4c-0.4-0.3-1-0.5-1.6-0.5
		c-1.2,0-2.3,0.7-2.3,2c0,1.5,1.4,1.8,2.6,2.1c0.9,0.2,1.8,0.4,2.6,0.9c0.9,0.5,1.4,1.5,1.4,2.6c0,0.8-0.2,1.3-0.5,1.8
		c-0.6,1.1-2,1.7-3.4,1.7c-1.4,0-2.5-0.5-3.2-1.7v1.4h-1.2v-3.3h1.2c0.1,1.4,1.4,2.5,3,2.5c1.3,0,2.5-0.9,2.5-2.2
		c0-1.6-1.4-1.9-2.7-2.2c-0.9-0.2-1.8-0.4-2.6-0.9c-0.9-0.6-1.4-1.4-1.4-2.5c0-0.8,0.2-1.4,0.6-2c0.7-0.9,2-1.3,3.1-1.3
		c1.1,0,2.1,0.4,2.6,1.3V9.2h1.2v3H181.7z"/>
	<path clip-path="url(#SVGID_2_)" fill="#FFFFFF" d="M192.9,12.1c0-0.6-0.3-1.1-0.8-1.4c-0.4-0.3-1-0.5-1.6-0.5
		c-1.2,0-2.3,0.7-2.3,2c0,1.5,1.4,1.8,2.6,2.1c0.9,0.2,1.8,0.4,2.6,0.9c0.9,0.5,1.4,1.5,1.4,2.6c0,0.8-0.2,1.3-0.5,1.8
		c-0.6,1.1-2,1.7-3.4,1.7c-1.4,0-2.5-0.5-3.2-1.7v1.4h-1.2v-3.3h1.2c0.1,1.4,1.4,2.5,3,2.5c1.3,0,2.5-0.9,2.5-2.2
		c0-1.6-1.4-1.9-2.7-2.2c-0.9-0.2-1.8-0.4-2.6-0.9c-0.9-0.6-1.4-1.4-1.4-2.5c0-0.8,0.2-1.4,0.6-2c0.7-0.9,2-1.3,3.1-1.3
		s2.1,0.4,2.6,1.3V9.2h1.2v3H192.9z"/>
	<path clip-path="url(#SVGID_2_)" fill="#FFFFFF" d="M48.4,34.6c-1.1,0-1.9-0.8-1.9-1.9v0c0-1.1,0.8-1.9,1.9-1.9
		c0.7,0,1.1,0.2,1.5,0.6l-0.2,0.2C49.4,31.2,49,31,48.4,31c-0.9,0-1.6,0.7-1.6,1.7v0c0,0.9,0.7,1.7,1.6,1.7c0.6,0,0.9-0.2,1.3-0.6
		l0.2,0.2C49.6,34.3,49.1,34.6,48.4,34.6"/>
	<path clip-path="url(#SVGID_2_)" fill="#FFFFFF" d="M54.2,34.6c-1.2,0-1.9-0.9-1.9-1.9v0c0-1,0.8-1.9,2-1.9c1.2,0,1.9,0.9,1.9,1.9
		c0,0,0,0,0,0C56.1,33.6,55.4,34.6,54.2,34.6 M55.8,32.6c0-0.9-0.7-1.7-1.7-1.7c-1,0-1.6,0.7-1.6,1.7v0c0,0.9,0.7,1.7,1.7,1.7
		C55.1,34.3,55.8,33.6,55.8,32.6L55.8,32.6z"/>
	<path clip-path="url(#SVGID_2_)" fill="#FFFFFF" d="M60.2,33.1h-1v1.4h-0.3v-3.7h1.4c0.9,0,1.4,0.4,1.4,1.1v0
		C61.7,32.7,61,33.1,60.2,33.1 M61.4,31.9c0-0.6-0.5-0.9-1.2-0.9h-1.1v1.8h1.1C60.9,32.8,61.4,32.5,61.4,31.9L61.4,31.9z"/>
	<polygon clip-path="url(#SVGID_2_)" fill="#FFFFFF" points="64.3,34.5 64.3,30.8 67.1,30.8 67.1,31 64.6,31 64.6,32.5 66.8,32.5 
		66.8,32.7 64.6,32.7 64.6,34.2 67.1,34.2 67.1,34.5 	"/>
	<polygon clip-path="url(#SVGID_2_)" fill="#FFFFFF" points="72.8,34.5 70,31.2 70,34.5 69.7,34.5 69.7,30.8 70,30.8 72.7,34 
		72.7,30.8 73,30.8 73,34.5 	"/>
	<polygon clip-path="url(#SVGID_2_)" fill="#FFFFFF" points="78.6,34.5 78.6,32.7 76.2,32.7 76.2,34.5 75.9,34.5 75.9,30.8 
		76.2,30.8 76.2,32.5 78.6,32.5 78.6,30.8 78.9,30.8 78.9,34.5 	"/>
	<path clip-path="url(#SVGID_2_)" fill="#FFFFFF" d="M85.1,34.5l-0.5-1h-2.3l-0.5,1h-0.3l1.8-3.7h0.3l1.8,3.7H85.1z M83.4,31l-1,2.2
		h2L83.4,31z"/>
	<path clip-path="url(#SVGID_2_)" fill="#FFFFFF" d="M89.5,34.6c-1.2,0-2-0.9-2-1.9v0c0-1,0.8-1.9,1.9-1.9c0.6,0,1,0.2,1.4,0.5
		l-0.2,0.2C90.4,31.2,90,31,89.4,31c-0.9,0-1.6,0.8-1.6,1.7v0c0,1,0.6,1.7,1.7,1.7c0.5,0,1-0.2,1.2-0.4v-1.1h-1.3v-0.3H91V34
		C90.7,34.3,90.1,34.6,89.5,34.6"/>
	<polygon clip-path="url(#SVGID_2_)" fill="#FFFFFF" points="93.8,34.5 93.8,30.8 96.6,30.8 96.6,31 94.1,31 94.1,32.5 96.3,32.5 
		96.3,32.7 94.1,32.7 94.1,34.2 96.6,34.2 96.6,34.5 	"/>
	<polygon clip-path="url(#SVGID_2_)" fill="#FFFFFF" points="102.3,34.5 99.5,31.2 99.5,34.5 99.3,34.5 99.3,30.8 99.5,30.8 
		102.2,34 102.2,30.8 102.5,30.8 102.5,34.5 	"/>
	<path clip-path="url(#SVGID_2_)" fill="#FFFFFF" d="M110.8,34.5h-1.7v-3.7h1.6c0.8,0,1.3,0.4,1.3,0.9v0c0,0.5-0.3,0.8-0.7,0.9
		c0.5,0.1,0.9,0.4,0.9,0.9v0C112.2,34.1,111.6,34.5,110.8,34.5 M111.7,31.7c0-0.4-0.4-0.7-1-0.7h-1.3v1.5h1.3
		C111.3,32.5,111.7,32.2,111.7,31.7L111.7,31.7z M111.9,33.5c0-0.5-0.4-0.7-1.2-0.7h-1.3v1.5h1.4C111.5,34.2,111.9,33.9,111.9,33.5
		L111.9,33.5z"/>
	<path clip-path="url(#SVGID_2_)" fill="#FFFFFF" d="M116.4,34.5c-0.9,0-1.6-0.6-1.6-1.6v-2.2h0.3v2.1c0,0.9,0.5,1.4,1.3,1.4
		c0.8,0,1.3-0.5,1.3-1.4v-2.2h0.3v2.1C118,34,117.3,34.5,116.4,34.5"/>
	<path clip-path="url(#SVGID_2_)" fill="#FFFFFF" d="M122.1,34.5c-0.6,0-1.1-0.2-1.6-0.6l0.2-0.2c0.4,0.4,0.8,0.6,1.4,0.6
		c0.6,0,1-0.3,1-0.7v0c0-0.4-0.2-0.6-1.1-0.8c-0.9-0.2-1.3-0.5-1.3-1v0c0-0.6,0.5-1,1.2-1c0.6,0,0.9,0.1,1.3,0.5l-0.2,0.2
		c-0.4-0.3-0.7-0.4-1.2-0.4c-0.6,0-0.9,0.3-0.9,0.7v0c0,0.4,0.2,0.6,1.1,0.8c0.9,0.2,1.3,0.5,1.3,1v0
		C123.4,34.1,122.9,34.5,122.1,34.5"/>
	<rect x="126.1" y="30.8" clip-path="url(#SVGID_2_)" fill="#FFFFFF" width="0.3" height="3.7"/>
	<polygon clip-path="url(#SVGID_2_)" fill="#FFFFFF" points="132.3,34.5 129.6,31.2 129.6,34.5 129.3,34.5 129.3,30.8 129.6,30.8 
		132.3,34 132.3,30.8 132.6,30.8 132.6,34.5 	"/>
	<polygon clip-path="url(#SVGID_2_)" fill="#FFFFFF" points="135.5,34.5 135.5,30.8 138.2,30.8 138.2,31 135.7,31 135.7,32.5 
		138,32.5 138,32.7 135.7,32.7 135.7,34.2 138.2,34.2 138.2,34.5 	"/>
	<path clip-path="url(#SVGID_2_)" fill="#FFFFFF" d="M142.2,34.5c-0.6,0-1.1-0.2-1.6-0.6l0.2-0.2c0.4,0.4,0.8,0.6,1.4,0.6
		c0.6,0,1-0.3,1-0.7v0c0-0.4-0.2-0.6-1.1-0.8c-0.9-0.2-1.3-0.5-1.3-1v0c0-0.6,0.5-1,1.2-1c0.6,0,0.9,0.1,1.3,0.5l-0.2,0.2
		c-0.4-0.3-0.7-0.4-1.2-0.4c-0.6,0-0.9,0.3-0.9,0.7v0c0,0.4,0.2,0.6,1.1,0.8c0.9,0.2,1.3,0.5,1.3,1v0
		C143.5,34.1,143,34.5,142.2,34.5"/>
	<path clip-path="url(#SVGID_2_)" fill="#FFFFFF" d="M147.5,34.5c-0.6,0-1.1-0.2-1.6-0.6l0.2-0.2c0.4,0.4,0.8,0.6,1.4,0.6
		c0.6,0,1-0.3,1-0.7v0c0-0.4-0.2-0.6-1.1-0.8c-0.9-0.2-1.3-0.5-1.3-1v0c0-0.6,0.5-1,1.2-1c0.6,0,0.9,0.1,1.3,0.5l-0.2,0.2
		c-0.4-0.3-0.7-0.4-1.2-0.4c-0.6,0-0.9,0.3-0.9,0.7v0c0,0.4,0.2,0.6,1.1,0.8c0.9,0.2,1.3,0.5,1.3,1v0
		C148.7,34.1,148.2,34.5,147.5,34.5"/>
	<path clip-path="url(#SVGID_2_)" fill="#FFFFFF" d="M158,34.5l-0.5-1h-2.3l-0.5,1h-0.3l1.8-3.7h0.3l1.8,3.7H158z M156.4,31l-1,2.2
		h2L156.4,31z"/>
	<path clip-path="url(#SVGID_2_)" fill="#FFFFFF" d="M162.4,34.6c-1.1,0-1.9-0.8-1.9-1.9v0c0-1.1,0.8-1.9,1.9-1.9
		c0.7,0,1.1,0.2,1.5,0.6l-0.2,0.2c-0.3-0.3-0.7-0.5-1.3-0.5c-0.9,0-1.6,0.7-1.6,1.7v0c0,0.9,0.7,1.7,1.6,1.7c0.6,0,0.9-0.2,1.3-0.6
		l0.2,0.2C163.6,34.3,163.1,34.6,162.4,34.6"/>
	<path clip-path="url(#SVGID_2_)" fill="#FFFFFF" d="M169.7,34.5l-0.5-1H167l-0.5,1h-0.3l1.8-3.7h0.3l1.8,3.7H169.7z M168.1,31
		l-1,2.2h2L168.1,31z"/>
	<path clip-path="url(#SVGID_2_)" fill="#FFFFFF" d="M173.9,34.5h-1.3v-3.7h1.3c1.2,0,2.1,0.8,2.1,1.8v0
		C176,33.7,175.1,34.5,173.9,34.5 M175.7,32.6c0-0.9-0.7-1.6-1.8-1.6h-1v3.2h1C175,34.2,175.7,33.5,175.7,32.6L175.7,32.6z"/>
	<polygon clip-path="url(#SVGID_2_)" fill="#FFFFFF" points="178.7,34.5 178.7,30.8 181.5,30.8 181.5,31 179,31 179,32.5 
		181.2,32.5 181.2,32.7 179,32.7 179,34.2 181.5,34.2 181.5,34.5 	"/>
	<polygon clip-path="url(#SVGID_2_)" fill="#FFFFFF" points="187.5,34.5 187.5,31.3 186,33.4 186,33.4 184.4,31.3 184.4,34.5 
		184.1,34.5 184.1,30.8 184.4,30.8 186,33 187.5,30.8 187.8,30.8 187.8,34.5 	"/>
	<polygon clip-path="url(#SVGID_2_)" fill="#FFFFFF" points="192.3,33 192.3,34.5 192,34.5 192,33 190.3,30.8 190.7,30.8 
		192.1,32.8 193.6,30.8 193.9,30.8 	"/>
	<path clip-path="url(#SVGID_2_)" fill="#F9B233" d="M35,35H0V0h35V35z M4.7,30.3h25.7V4.7H4.7V30.3z"/>
</g>
</svg>
