<?xml version="1.0" ?>
<!DOCTYPE svg PUBLIC "-//W3C//DTD SVG 1.1//EN" "https://www.w3.org/Graphics/SVG/1.1/DTD/svg11.dtd">


<svg version="1.1" xmlns="http://www.w3.org/2000/svg" xmlns:xlink="http://www.w3.org/1999/xlink"
      viewBox="0 0 800 600">

<!--    Ramme-->
    <rect x="0" y="0" height="600" width="780" style="stroke:#000000; fill: #ffffff" />

<!--    Remme-->
    <rect x="0" y="35" height="4.5" width="780" style="stroke:#000000; fill: #ffffff" />
    <rect x="0" y="565" height="4.5" width="780" style="stroke:#000000; fill: #ffffff" />

<!--    Spær-->
    <rect x="0" y="0" height="600" width="4.5" style="stroke:#000000; fill: #ffffff" />
    <rect x="55" y="0" height="600" width="4.5" style="stroke:#000000; fill: #ffffff" />
    <rect x="110" y="0" height="600" width="4.5" style="stroke:#000000; fill: #ffffff" />
    <rect x="775.5" y="0" height="600" width="4.5" style="stroke:#000000; fill: #ffffff" />

<!--    Kryds-->
    <line x1="55" y1="35" x2="600" y2="569.5" style="stroke:#000000; stroke-dasharray: 5 5;" />
    <line x1="55" y1="569.5" x2="600" y2="35" style="stroke:#000000; stroke-dasharray: 5 5;" />

<!--    Stolper-->
    <rect x="110" y="32" height="9.7" width="9.7" style="stroke:#000000; fill: #ffffff" />
    <rect x="420" y="32" height="9.7" width="9.7" style="stroke:#000000; fill: #ffffff" />
    <rect x="730" y="32" height="9.7" width="9.7" style="stroke:#000000; fill: #ffffff" />
    <rect x="110" y="562" height="9.7" width="9.7" style="stroke:#000000; fill: #ffffff" />
    <rect x="420" y="562" height="9.7" width="9.7" style="stroke:#000000; fill: #ffffff" />
    <rect x="730" y="562" height="9.7" width="9.7" style="stroke:#000000; fill: #ffffff" />


</svg>